<svg preserveAspectRatio="xMidYMid meet" width="44" height="52" overflow="visible" style="display: block;" viewBox="0 0 44 52" fill="none" xmlns="http://www.w3.org/2000/svg">
<g id="Frame 3">
<path id="Vector" d="M22.3361 15.3579V15.3667C22.342 16.8797 23.5099 18.0406 25.0228 18.045C25.1214 18.045 25.2186 18.0406 25.3196 18.0304C26.9816 17.8799 28.3802 16.3114 28.3757 14.6968C28.3757 14.6946 28.3757 14.6909 28.3757 14.6836C28.3623 13.183 27.2553 12.1719 25.7313 12.1558C25.6238 12.1558 25.5154 12.1624 25.4041 12.1726C23.7125 12.3384 22.3331 13.7507 22.3361 15.3579ZM22.5112 17.8595C21.8753 17.2268 21.4866 16.345 21.4866 15.3704V15.3689H21.488C21.488 15.3667 21.488 15.3667 21.488 15.3667L21.4866 15.366C21.4866 15.3638 21.4866 15.3623 21.4866 15.3609C21.4851 15.3587 21.4851 15.3536 21.4866 15.347C21.5036 13.2714 23.2139 11.5538 25.3196 11.3405C25.4561 11.3266 25.5919 11.3207 25.7269 11.3207C25.7284 11.3207 25.7299 11.32 25.7313 11.32C26.6981 11.32 27.5729 11.6634 28.208 12.2632C28.8417 12.8593 29.2238 13.709 29.2253 14.6778V14.6814V14.6865C29.2149 16.757 27.541 18.6419 25.4041 18.8626C25.275 18.8757 25.1489 18.8815 25.0228 18.8815H25.0213C24.036 18.8815 23.1463 18.4936 22.5112 17.8595ZM29.7617 33.8067C29.7654 33.8279 29.7669 33.849 29.7669 33.8702C29.7669 33.9199 29.7565 33.9696 29.7394 34.0171C29.6912 34.1435 29.5858 34.2384 29.4538 34.275C26.9964 34.9361 26.3064 35.1626 24.2311 36.0181C24.1814 36.0371 24.125 36.0496 24.0686 36.0496H23.9714L23.964 36.0371C23.8816 36.0174 23.8223 35.9758 23.8074 35.9612L23.7985 35.9546L23.7896 35.9487C23.7607 35.9224 23.7377 35.8954 23.7303 35.8859C23.7147 35.8647 23.7013 35.8435 23.6969 35.8377C23.6872 35.8202 23.6798 35.8055 23.6754 35.7975C23.6665 35.7785 23.6583 35.7595 23.6479 35.7383C23.6271 35.693 23.6026 35.6339 23.5707 35.5593C23.5069 35.4066 23.4201 35.1955 23.317 34.9413C23.1092 34.432 22.8355 33.7541 22.5646 33.0783C22.1981 32.1658 21.8331 31.254 21.6342 30.7565C14.2769 33.5605 4.97636 39.3642 2.72449 40.924C2.65327 40.973 2.56942 41 2.48261 41H2.48113C2.44181 41 2.40322 40.9949 2.3639 40.9839C2.23925 40.9489 2.13908 40.8605 2.08863 40.7436L0.0333885 35.9261C0.0118715 35.872 0 35.8172 0 35.7624C0 35.6331 0.0608411 35.5082 0.170652 35.4278C4.178 32.466 9.81619 29.2084 16.2564 26.3386L16.2594 26.3415C16.3143 26.3152 16.3752 26.2999 16.439 26.2999C16.6734 26.2999 16.8619 26.4855 16.8619 26.7149C16.8619 26.8851 16.7588 27.0327 16.6096 27.097V27.0992C10.3593 29.8834 4.87323 33.0366 0.944521 35.9027L2.66885 39.945C5.59961 37.99 14.5707 32.4799 21.7255 29.8264C21.7744 29.8082 21.8271 29.7987 21.8761 29.7987C22.0453 29.7987 22.2063 29.8995 22.2716 30.0624C22.273 30.0697 22.7731 31.3234 23.2977 32.629C23.6791 33.5795 24.0775 34.5687 24.2919 35.0845C25.974 34.3962 26.8146 34.1194 28.7897 33.5838C28.7853 33.5721 28.7808 33.5597 28.7764 33.548C28.6732 33.2631 28.5241 32.8554 28.3445 32.3689C27.9869 31.3957 27.5083 30.0975 27.0231 28.7927C26.2477 26.6966 25.4524 24.5611 25.1348 23.7246C23.038 24.4508 20.9835 25.242 18.9906 26.0727V26.0712C18.9424 26.0895 18.8904 26.1012 18.834 26.1012C18.6011 26.1012 18.4126 25.9142 18.4126 25.6848C18.4126 25.5145 18.5157 25.3684 18.6649 25.3041L18.6634 25.3012C20.795 24.4121 22.9965 23.5704 25.2468 22.8026C25.2876 22.788 25.3344 22.7792 25.3804 22.7785H25.3893C25.4368 22.7785 25.4865 22.7873 25.534 22.8055C25.5763 22.8194 25.6097 22.8391 25.6312 22.8552H25.6401L25.6861 22.902L25.6905 22.9056L25.6965 22.9122C25.7172 22.9326 25.7328 22.9546 25.7373 22.9619C25.7499 22.9809 25.7618 22.9999 25.7618 23.0042C25.7707 23.0174 25.7751 23.0298 25.7766 23.0313C25.7825 23.0444 25.787 23.0546 25.79 23.0634C25.7989 23.0839 25.807 23.1072 25.8204 23.1372C25.8434 23.1986 25.8768 23.2862 25.9191 23.398C26.0051 23.6223 26.1253 23.9438 26.273 24.3346C26.5653 25.1178 26.963 26.1845 27.3844 27.3183C28.2251 29.5875 29.1629 32.1234 29.5539 33.201C29.6689 33.5166 29.7283 33.6781 29.7513 33.7548L29.7558 33.7687V33.7701C29.7587 33.7826 29.7617 33.7972 29.7617 33.8067ZM43.9651 16.0739C43.9866 16.1265 43.9985 16.1806 44 16.2354C44 16.364 43.9392 16.4889 43.8293 16.5692C39.8205 19.5318 34.1823 22.7902 27.7428 25.6592L27.7413 25.6563C27.6864 25.6826 27.6256 25.6986 27.5588 25.6986C27.3258 25.6986 27.1374 25.5116 27.1374 25.2822C27.1374 25.1127 27.242 24.9666 27.3911 24.9016L27.3896 24.8994C33.6392 22.1144 39.1283 18.9619 43.0555 16.0958L41.3312 12.052C38.3989 14.0093 29.4286 19.5172 22.2738 22.1728C22.2248 22.1896 22.1721 22.1984 22.1232 22.1984C21.954 22.1984 21.7945 22.099 21.7277 21.9354C21.7262 21.9288 21.2261 20.6737 20.7016 19.3681C20.3202 18.4184 19.9218 17.4291 19.7088 16.9126C18.0253 17.6008 17.1846 17.8777 15.2095 18.4132C15.2155 18.4257 15.2184 18.4374 15.2229 18.4498C15.3275 18.7347 15.4766 19.1416 15.6547 19.6289C16.0123 20.6028 16.4909 21.8989 16.9762 23.2051C17.753 25.3019 18.5469 27.436 18.8645 28.2718C20.9612 27.5463 23.0157 26.7565 25.0087 25.9237V25.9258C25.0569 25.9076 25.1103 25.8966 25.1652 25.8966C25.3982 25.8966 25.5881 26.0822 25.5881 26.3123C25.5881 26.4826 25.4835 26.6287 25.3344 26.693L25.3359 26.6959C23.2042 27.5843 21.0028 28.4274 18.7539 29.1952C18.7116 29.2091 18.6649 29.2186 18.6189 29.2186C18.6144 29.2186 18.61 29.2186 18.61 29.2186C18.564 29.2186 18.5128 29.2106 18.4653 29.1923C18.423 29.1784 18.3896 29.158 18.3681 29.1426H18.3592L18.3132 29.0959L18.3087 29.0929L18.3028 29.0849C18.282 29.0644 18.2679 29.0425 18.262 29.0359C18.2486 29.0162 18.239 28.9965 18.236 28.9936C18.2301 28.9804 18.2241 28.968 18.2227 28.9658C18.2182 28.9519 18.2123 28.9432 18.2093 28.9337C18.2004 28.9139 18.1922 28.8913 18.1804 28.8599C18.1551 28.7985 18.1225 28.7108 18.0802 28.5998C17.9941 28.3755 17.8739 28.0548 17.7278 27.6624C17.4339 26.8793 17.0363 25.8119 16.6148 24.6787C15.7742 22.4095 14.8363 19.8751 14.4453 18.7961C14.3303 18.4805 14.271 18.319 14.248 18.2416L14.245 18.2291V18.2277C14.2405 18.2153 14.2376 18.2006 14.2376 18.1911C14.2346 18.17 14.2316 18.1495 14.2316 18.1283H14.2331C14.2331 18.0786 14.242 18.0297 14.2591 17.9807C14.3073 17.8551 14.4142 17.7601 14.5447 17.725C17.0021 17.0624 17.6922 16.8381 19.7674 15.9819C19.8171 15.9614 19.8735 15.949 19.9314 15.949H20.0271L20.0345 15.9621C20.1169 15.9833 20.177 16.0242 20.1926 16.0388H20.1911L20.2015 16.044L20.2089 16.0513C20.2378 16.0761 20.2608 16.1039 20.2683 16.1126C20.2861 16.1338 20.2972 16.155 20.3031 16.163C20.3128 16.1798 20.3187 16.193 20.3232 16.201C20.3321 16.2208 20.3402 16.239 20.3506 16.2617C20.3706 16.3055 20.3951 16.3647 20.4285 16.4414C20.4908 16.5919 20.5777 16.8038 20.6823 17.0595C20.8885 17.5672 21.1623 18.2445 21.4346 18.9217C21.7997 19.8335 22.1647 20.746 22.3636 21.2435C29.7209 18.4395 39.0236 12.635 41.274 11.076C41.3445 11.0263 41.4306 11 41.5144 11H41.5174C41.5552 11 41.5953 11.0051 41.6331 11.0161C41.7578 11.0504 41.8594 11.1395 41.9099 11.2557L43.9651 16.0739Z" fill="var(--fill-0, white)"/>
</g>
</svg>
