<svg preserveAspectRatio="xMidYMid meet" width="222.745" height="150.857" overflow="visible" style="display: block;" viewBox="0 0 222.745 150.857" fill="none" xmlns="http://www.w3.org/2000/svg">
<g id="Group">
<g id="Vector">
</g>
<g id="Group_2">
<path id="Vector_2" d="M88.7129 44.3324V44.3546C88.7278 48.1873 91.6452 51.128 95.4246 51.1391C95.6712 51.1391 95.914 51.128 96.1661 51.1021C100.318 50.7208 103.812 46.7475 103.801 42.6576C103.801 42.652 103.801 42.6427 103.801 42.6242C103.767 38.823 101.002 36.2617 97.1948 36.221C96.926 36.221 96.6554 36.2376 96.3774 36.2635C92.1513 36.6836 88.7055 40.261 88.7129 44.3324ZM89.1504 50.669C87.5619 49.0664 86.5906 46.8326 86.5906 44.3639V44.3602H86.5943C86.5943 44.3546 86.5943 44.3546 86.5943 44.3546L86.5906 44.3528C86.5906 44.3472 86.5906 44.3435 86.5906 44.3398C86.5869 44.3342 86.5869 44.3213 86.5906 44.3046C86.6333 39.0469 90.9057 34.696 96.1661 34.1557C96.5071 34.1205 96.8463 34.1057 97.1836 34.1057C97.1874 34.1057 97.1911 34.1038 97.1948 34.1038C99.6099 34.1038 101.795 34.9736 103.382 36.493C104.965 38.0032 105.919 40.1555 105.923 42.6094V42.6187V42.6316C105.897 47.8764 101.716 52.6511 96.3774 53.21C96.0548 53.2433 95.7397 53.2581 95.4246 53.2581H95.4209C92.9594 53.2581 90.737 52.2754 89.1504 50.669ZM107.263 91.0651C107.272 91.1188 107.276 91.1724 107.276 91.2261C107.276 91.3519 107.25 91.4778 107.208 91.5981C107.087 91.9182 106.824 92.1588 106.494 92.2514C100.355 93.9262 98.6313 94.4999 93.4469 96.667C93.3227 96.7151 93.1818 96.7466 93.041 96.7466H92.7982L92.7796 96.7151C92.5739 96.6652 92.4256 96.5597 92.3885 96.5227L92.3663 96.506L92.344 96.4912C92.2717 96.4246 92.2143 96.3561 92.1958 96.332C92.1568 96.2784 92.1235 96.2247 92.1123 96.2099C92.0883 96.1655 92.0697 96.1285 92.0586 96.1081C92.0364 96.06 92.016 96.0119 91.99 95.9582C91.9381 95.8435 91.8769 95.6936 91.7972 95.5048C91.6378 95.118 91.421 94.5832 91.1633 93.9392C90.6443 92.6492 89.9604 90.9318 89.2838 89.22C88.3682 86.9085 87.4562 84.5989 86.9595 83.3386C68.5797 90.4414 45.3455 105.143 39.72 109.094C39.5421 109.218 39.3326 109.287 39.1158 109.287H39.1121C39.0138 109.287 38.9174 109.274 38.8192 109.246C38.5078 109.157 38.2576 108.933 38.1315 108.637L32.9972 96.4338C32.9435 96.2969 32.9138 96.1581 32.9138 96.0193C32.9138 95.6917 33.0658 95.3753 33.3401 95.1717C43.3511 87.6691 57.4362 79.4171 73.525 72.1477L73.5324 72.1551C73.6696 72.0885 73.8216 72.0496 73.981 72.0496C74.5667 72.0496 75.0375 72.5197 75.0375 73.1008C75.0375 73.532 74.7798 73.9058 74.4073 74.0687V74.0742C58.793 81.1271 45.0879 89.1145 35.2734 96.3746L39.581 106.614C46.9025 101.662 69.3137 87.7043 87.1875 80.9827C87.3098 80.9365 87.4414 80.9124 87.5637 80.9124C87.9864 80.9124 88.3886 81.1678 88.5517 81.5805C88.5554 81.599 89.8047 84.7747 91.1151 88.0818C92.0679 90.4895 93.0632 92.9953 93.5989 94.3019C97.8009 92.5586 99.9009 91.8572 104.835 90.5006C104.824 90.471 104.813 90.4396 104.802 90.41C104.544 89.6882 104.172 88.6555 103.723 87.423C102.83 84.9579 101.634 81.6693 100.422 78.3641C98.4848 73.0545 96.4978 67.6451 95.7045 65.5261C90.4664 67.3656 85.3339 69.3699 80.3553 71.4741V71.4704C80.2348 71.5166 80.1051 71.5462 79.9642 71.5462C79.3822 71.5462 78.9114 71.0725 78.9114 70.4914C78.9114 70.0602 79.169 69.69 79.5416 69.5272L79.5379 69.5198C84.8631 67.2675 90.3626 65.1356 95.9844 63.1905C96.0863 63.1535 96.2031 63.1313 96.318 63.1295H96.3403C96.4589 63.1295 96.5831 63.1517 96.7017 63.198C96.8074 63.2331 96.8908 63.2831 96.9445 63.3238H96.9668L97.0817 63.4422L97.0928 63.4515L97.1076 63.4681C97.1595 63.52 97.1985 63.5755 97.2096 63.594C97.2411 63.6421 97.2708 63.6902 97.2708 63.7013C97.293 63.7346 97.3041 63.7661 97.3078 63.7698C97.3227 63.8031 97.3338 63.829 97.3412 63.8512C97.3634 63.9031 97.3838 63.9623 97.4172 64.0381C97.4747 64.1936 97.5581 64.4157 97.6637 64.6988C97.8787 65.267 98.179 66.0813 98.5479 67.0714C99.2782 69.0553 100.272 71.7572 101.324 74.6294C103.425 80.3776 105.767 86.8012 106.744 89.5309C107.032 90.3304 107.18 90.7394 107.237 90.9337L107.248 90.9689V90.9726C107.256 91.004 107.263 91.041 107.263 91.0651ZM142.746 46.146C142.799 46.2793 142.829 46.4162 142.833 46.555C142.833 46.8807 142.681 47.1972 142.406 47.4008C132.392 54.9052 118.307 63.1591 102.22 70.4266L102.216 70.4192C102.079 70.4858 101.927 70.5265 101.76 70.5265C101.178 70.5265 100.707 70.0528 100.707 69.4717C100.707 69.0423 100.969 68.6722 101.341 68.5075L101.337 68.5019C116.95 61.4472 130.662 53.4617 140.473 46.2016L136.166 35.9582C128.84 40.9161 106.431 54.8682 88.5572 61.5953C88.4349 61.6379 88.3033 61.6601 88.181 61.6601C87.7584 61.6601 87.3599 61.4084 87.193 60.9938C87.1893 60.9772 85.94 57.7977 84.6296 54.4906C83.6769 52.0848 82.6815 49.579 82.1495 48.2706C77.9438 50.0139 75.8438 50.7153 70.9096 52.0718C70.9245 52.1033 70.9319 52.1329 70.943 52.1644C71.2043 52.8861 71.5769 53.9169 72.0218 55.1513C72.9152 57.6182 74.1107 60.9013 75.3229 64.2103C77.2636 69.5216 79.2469 74.9274 80.0402 77.0445C85.2783 75.2068 90.4108 73.2063 95.3894 71.0965V71.1021C95.5099 71.0558 95.6433 71.0281 95.7805 71.0281C96.3625 71.0281 96.837 71.4981 96.837 72.0811C96.837 72.5123 96.5757 72.8824 96.2031 73.0453L96.2068 73.0527C90.8816 75.3031 85.3821 77.4387 79.764 79.3838C79.6584 79.4189 79.5416 79.443 79.4267 79.443C79.4156 79.443 79.4044 79.443 79.4044 79.443C79.2895 79.443 79.1616 79.4226 79.043 79.3764C78.9373 79.3412 78.8539 79.2894 78.8002 79.2505H78.7779L78.663 79.1321L78.6519 79.1247L78.6371 79.1043C78.5852 79.0525 78.5499 78.997 78.5351 78.9803C78.5018 78.9304 78.4777 78.8804 78.4702 78.873C78.4554 78.8397 78.4406 78.8082 78.4369 78.8027C78.4258 78.7675 78.4109 78.7453 78.4035 78.7212C78.3813 78.6713 78.3609 78.6139 78.3312 78.5343C78.2682 78.3789 78.1867 78.1568 78.081 77.8755C77.866 77.3073 77.5657 76.4949 77.2006 75.5011C76.4666 73.5172 75.4731 70.8134 74.4202 67.943C72.3202 62.1949 69.9773 55.775 69.0005 53.0416C68.7132 52.2421 68.5649 51.8331 68.5074 51.6369L68.5 51.6055V51.6018C68.4889 51.5703 68.4815 51.5333 68.4815 51.5092C68.4741 51.4556 68.4667 51.4037 68.4667 51.3501H68.4704C68.4704 51.2242 68.4926 51.1002 68.5352 50.9762C68.6557 50.6579 68.9226 50.4173 69.2489 50.3285C75.3878 48.65 77.1116 48.0818 82.296 45.9129C82.4202 45.861 82.561 45.8296 82.7056 45.8296H82.9447L82.9632 45.8629C83.169 45.9166 83.3191 46.0202 83.358 46.0572H83.3543L83.3803 46.0702L83.3988 46.0887C83.4711 46.1516 83.5286 46.2219 83.5471 46.2441C83.5916 46.2978 83.6194 46.3515 83.6342 46.3718C83.6583 46.4144 83.6732 46.4477 83.6843 46.468C83.7065 46.518 83.7269 46.5643 83.7529 46.6217C83.8029 46.7327 83.8641 46.8826 83.9475 47.0769C84.1032 47.4581 84.32 47.9948 84.5814 48.6426C85.0967 49.9288 85.7806 51.6443 86.4609 53.3599C87.3728 55.6695 88.2848 57.981 88.7815 59.2413C107.161 52.1384 130.401 37.435 136.023 33.4857C136.199 33.3599 136.414 33.2933 136.623 33.2933H136.631C136.725 33.2933 136.825 33.3062 136.92 33.334C137.231 33.4209 137.485 33.6467 137.611 33.941L142.746 46.146Z" fill="var(--fill-0, white)"/>
<g id="Group_3">
<path id="Vector_3" d="M175.976 117.268V78.514H180.436V117.268H175.976ZM175.976 71.2094H180.436V75.6658H175.976V71.2094ZM128.813 113.845C134.716 113.924 142.253 110.04 143.355 108.8V95.9601C140.801 95.0144 137.711 94.4666 134.386 94.4666C127.788 94.4666 122.125 96.6319 119.715 99.7169L119.712 99.7206C118.65 101.07 118.016 102.765 118.016 104.608C118.016 106.933 119.035 109.035 120.635 110.478C122.735 112.372 125.747 113.743 128.813 113.845ZM147.533 88.228H147.53V117.27H143.354V113.402C142.382 114.126 134.864 118.299 129.128 118.068C124.687 117.924 120.698 116.382 117.83 113.884C115.246 111.635 113.617 108.322 113.617 104.632C113.617 101.405 114.857 98.4399 116.92 96.2728C120.055 92.975 126.431 90.719 133.776 90.719C137.274 90.719 140.547 91.2279 143.355 92.1181V88.2299C143.355 84.9764 140.977 82.2467 137.856 81.7544C135.791 81.4324 133.567 81.2733 131.289 81.3306C126.308 81.4528 121.758 82.5373 118.201 84.2491V79.7354C121.851 78.0328 126.544 77.0001 131.671 77.0001C134.253 77.0001 136.753 77.2481 139.035 77.7496C143.867 78.8064 147.493 83.0925 147.533 88.228ZM166.36 112.753L173.201 112.755V117.272H166.36C165.806 117.276 165.248 117.244 164.699 117.154C159.598 116.362 155.695 112.224 155.695 107.049V82.3374H148.414V78.5158H155.695V71.2927H160.158V78.5158H173.203V82.3374H160.158V105.933C160.158 108.879 161.274 111.506 164.621 112.46C165.146 112.594 165.735 112.696 166.36 112.753Z" fill="var(--fill-0, white)"/>
<path id="Vector_4" d="M185.548 112.646H187.195C187.658 112.646 188.025 112.766 188.262 112.969C188.456 113.145 188.569 113.384 188.569 113.667V113.676C188.569 114.208 188.204 114.526 187.688 114.655L188.685 115.879H187.919L187.011 114.752H186.198V115.879H185.548V112.646ZM187.148 114.246C187.612 114.246 187.908 114.034 187.908 113.706V113.697C187.908 113.351 187.622 113.162 187.142 113.162H186.198V114.246H187.148ZM186.862 111.65C185.416 111.65 184.237 112.825 184.237 114.27C184.237 115.716 185.414 116.891 186.862 116.891C188.31 116.891 189.487 115.716 189.487 114.27C189.487 112.825 188.31 111.65 186.862 111.65ZM186.862 111.213C188.554 111.213 189.926 112.581 189.924 114.27C189.924 115.958 188.552 117.328 186.862 117.328C185.171 117.328 183.8 115.958 183.8 114.27C183.8 112.583 185.171 111.213 186.862 111.213Z" fill="var(--fill-0, white)"/>
</g>
</g>
</g>
</svg>
